<svg width="1184" height="461" viewBox="0 0 1184 461" fill="none" xmlns="http://www.w3.org/2000/svg">
<path d="M221.941 0C226.171 3.94753 227.558 9.72412 225.993 16.8462C225.781 17.8152 225.406 18.7497 225.186 19.7185C222.55 31.2473 224.753 33.8708 236.436 33.2009C238.023 33.1086 239.629 33.0124 241.197 33.1709C251.096 34.1777 253.636 38.2292 250.293 47.642C249.361 50.2615 248.482 52.9272 247.257 55.4122C241.305 67.4947 252.198 79.7777 262.11 80.6241C265.873 80.945 269.657 81.0914 273.39 81.623C275.992 81.992 278.522 82.8765 281.807 83.7149C280.33 86.8538 279.305 88.9558 278.346 91.0839C275.676 97.0048 276.821 100.601 283.105 101.841C291.841 103.565 300.797 104.179 309.662 105.244C311.426 105.457 313.203 105.551 315.562 105.752C314.581 109.617 313.751 113.193 312.752 116.719C311.783 120.145 310.639 123.522 309.073 128.513C295.565 125.37 281.949 122.876 268.768 118.925C258.116 115.73 258.366 115.1 253.425 123.304C249.786 129.347 243.082 130.266 236.631 130.689C219.834 131.786 203.863 128.727 188.574 121.513C183.062 118.913 177.144 116.841 171.187 115.616C163.813 114.1 159.045 117.718 158.306 125.109C157.276 135.41 151.274 141.662 142.727 146.13C129.837 152.874 115.834 155.079 101.655 153.925C88.6622 152.866 75.557 150.984 62.9726 147.667C47.8765 143.69 33.0709 141.628 17.7585 145.399C16.2242 145.778 14.5257 146.221 13.0495 145.916C10.8823 145.473 7.83193 144.922 7.03476 143.421C6.20157 141.845 7.03076 138.754 8.13237 136.935C9.63656 134.448 11.8178 132.163 14.1812 130.444C22.5355 124.367 31.2181 118.739 39.5283 112.605C46.0659 107.777 52.7957 103.004 58.448 97.2314C67.5293 87.963 66.9284 77.4992 57.8451 68.1626C57.5667 67.8778 57.2843 67.597 57.0019 67.3181C46.8551 57.2153 47.0894 55.0752 59.4635 47.0825C67.6415 41.7974 76.1158 36.9416 84.0474 31.3176C95.6344 23.1002 97.7354 15.0591 92.652 1.78334C92.4177 1.16947 92.1934 0.575655 91.9831 0H85.7198C86.4489 1.68124 87.172 3.3656 87.853 5.06689C90.8754 12.6281 88.502 21.3953 81.9524 26.219C77.1053 29.7892 71.6994 32.5992 66.7041 35.9829C60.6051 40.1146 54.2839 44.0378 48.6917 48.7793C43.8767 52.8589 43.0174 60.2179 47.0072 65.1099C49.6851 68.3952 53.0341 71.113 55.8502 74.292C60.1965 79.192 60.3428 86.4206 56.1626 91.463C52.0286 96.4492 46.9612 100.822 41.7376 104.697C35.3662 109.426 28.0175 112.866 21.7843 117.75C14.8061 123.215 7.89204 129.08 2.26978 135.87C-3.02795 142.266 1.53673 150.794 9.88289 151.304C14.011 151.554 18.2912 151.273 22.3351 150.427C35.5484 147.665 48.193 149.32 61.146 152.856C73.3258 156.18 85.9782 158.56 98.5566 159.439C116.176 160.67 133.552 158.388 149.086 148.71C156.313 144.207 161.451 138.226 162.727 129.407C163.924 121.12 167.059 119.23 174.981 121.789C177.242 122.52 179.357 123.721 181.628 124.421C194.489 128.398 207.146 133.725 220.315 135.829C235.461 138.25 251.326 138.621 260.879 123.801C277.1 127.287 292.717 130.645 308.286 133.994C304.358 151.554 300.582 169.054 296.376 186.446C295.855 188.596 293.37 191.147 291.233 191.889C276.789 196.898 262.344 202.026 247.602 206.009C235.427 209.299 225.455 214.325 221.374 227.216C221.078 228.148 220.651 229.203 219.948 229.81C217.555 231.869 215.284 234.776 212.477 235.522C201.543 238.428 190.405 240.556 179.387 243.167C177.628 243.585 175.527 244.596 174.56 246.004C167.62 256.133 170.634 262.479 182.639 263.505C182.97 263.535 183.274 263.852 184.367 264.482C181.221 269.306 178.43 274.351 174.85 278.755C173.084 280.929 169.907 283.158 167.307 283.232C158.461 283.495 153.289 287.77 150.537 295.828C149.123 299.963 147.45 304.011 145.89 308.097C144.232 312.447 142.565 316.796 140.394 322.468C98.2442 290.538 53.697 266.622 0.923845 261.042V266.452C53.4347 276.414 116.365 304.105 130.637 323.544C122.457 326.066 120.597 333.339 118.87 340.184C112.399 365.871 115.021 390.744 126.491 414.65C127.457 416.668 128.346 418.72 129.518 421.299C124.895 421.299 121.32 421.297 117.747 421.299C80.5343 421.327 43.3238 421.341 6.11337 421.401C5.74287 421.404 5.3543 421.387 4.95972 421.371C2.26978 421.259 -0.652473 421.147 1.37447 426.444C3.66182 426.444 6.01722 426.438 8.37069 426.444C47.7723 426.522 87.1721 426.558 126.57 426.775C129.063 426.789 132.593 427.425 133.862 429.11C140.268 437.622 146.084 446.577 152.429 455.846H0.929787V460.824C15.9759 460.824 30.6673 460.826 45.3588 460.824C428.412 460.804 553.394 460.784 936.45 460.762C960.695 462.278 965.818 456.062 957.311 456.062C957.311 448.389 956.879 441.659 957.448 435.016C957.918 429.565 965.086 423.688 965.086 423.688C965.086 422.368 978.66 403.887 985.165 396.011C1011.02 364.698 1040.91 337.498 1072.62 312.397C1103.33 288.087 1134.82 264.757 1166.07 241.144C1171.77 236.842 1178.01 233.275 1184 229.356C1183.92 228.505 1183.91 228.321 1183.84 227.471C1179.83 225.67 1175.94 223.57 1171.82 222.128C1162.54 218.884 1162.49 219.019 1163.63 208.946C1165.8 208.697 1167.97 208.445 1170.14 208.192C1170.34 207.227 1170.34 207.245 1170.55 206.28C1168.42 204.916 1166.44 203.097 1164.11 202.343C1155.43 199.539 1146.73 196.695 1137.84 194.707C1133.48 193.733 1131.96 192.202 1131.98 187.776L1126.42 188.255C1126.42 189.544 1126.09 190.83 1125.88 192.343C1092.7 188.62 1059.93 190.479 1027.16 192.599C994.798 194.695 962.434 196.767 930.069 198.712C927.899 198.841 925.215 198.432 923.52 197.217C914.982 191.079 908.551 183.132 903.997 173.559C901.783 168.912 898.999 164.487 896.091 160.225C884.337 143.004 866.885 133.737 848.27 126.046C845.098 124.738 841.771 122.81 839.594 120.247C819.896 97.0288 795.294 81.7593 765.932 74.1757C755.398 71.452 744.714 69.2938 733.505 66.7426C733.505 61.3271 733.599 55.7693 733.486 50.2154C733.311 42.0642 733.242 33.8949 732.611 25.7757C732.31 21.9789 730.803 17.7125 725.786 18.4949C721.339 19.189 718.367 22.3078 718.292 27.1938C718.186 34.7633 718.261 42.3349 718.261 49.9085C718.261 55.0151 718.261 60.1196 718.261 65.7296C661.052 60.4205 606.206 70.2063 551.896 84.3226C497.617 98.4268 443.868 113.941 397.516 148.554C394.804 130.021 392.523 112.651 389.637 95.3862C388.102 86.214 386.382 76.8995 383.185 68.2248C379.448 58.0839 370.228 53.3383 360.045 56.716C349.212 60.3062 338.944 65.7116 328.69 70.8442C326.266 72.0577 324.059 75.0782 323.179 77.7379C320.764 85.0467 319.107 92.6082 317.016 100.577C305.478 99.199 294.387 97.8772 282.826 96.4973C283.449 94.5257 283.586 93.7074 283.906 93.0675C287.966 84.9825 284.821 77.802 275.838 76.8212C271.215 76.3178 266.503 76.1273 262.004 75.0582C252.696 72.8419 248.905 65.0757 252.54 56.2526C253.978 52.7626 255.895 49.4693 257.309 45.9713C259.731 39.9702 258.569 35.3029 253.079 32.0315C249.6 29.9596 245.488 28.6901 241.494 27.8296C237.75 27.0253 233.787 27.23 229.572 26.9712C230.392 23.3027 231.189 20.238 231.75 17.1268C232.921 10.6305 231.846 4.69982 228.796 0H221.941ZM725.392 24.7869C728.113 29.3198 729.314 54.1226 727.3 66.4978C723.003 63.6878 721.858 32.577 725.392 24.7869ZM331.69 123.825C334.13 107.507 336.731 91.2083 339.609 74.964C340.016 72.6835 341.955 69.9216 343.968 68.8284C348.989 66.0987 354.329 63.7781 359.781 62.0652C368.728 59.2552 376.269 62.3821 378.789 71.3356C382.104 83.1272 383.974 95.352 386.006 107.467C388.209 120.602 389.727 133.852 391.88 146.996C392.555 151.125 391.299 153.43 388.034 155.875C375.392 165.339 361.119 170.992 346.047 175.055C338.824 177.005 331.692 179.299 323.454 181.754C326.31 161.581 328.872 142.683 331.69 123.825ZM564.188 100.449C556.691 88.9578 556.933 87.9149 570.251 84.8942C607.696 76.4 645.431 69.4803 683.951 69.1053C717.729 68.7763 750.951 73.1307 782.734 85.2774C790.597 88.2799 797.959 92.5962 806.253 96.6558C778.668 94.3612 752.421 91.4128 726.086 90.1552C677.59 87.8427 630.399 97.1933 583.482 108.116C579.214 109.111 576.418 109.765 574.303 109.765C570.269 109.765 568.712 107.386 564.188 100.449ZM332.952 74.6229C332.625 78.5942 332.539 81.641 332.096 84.6335C327.44 116.111 322.795 147.589 317.876 179.022C317.539 181.161 315.402 183.66 313.421 184.745C310.365 186.418 306.721 187.011 302.874 188.203C302.064 177.305 327.532 79.3404 332.952 74.6229ZM356.476 181.153C356.554 179.843 358.007 177.901 359.24 177.486C372.616 172.997 384.405 165.743 395.415 157.106C433.675 127.103 477.663 109.488 524.165 97.2876C532.402 95.1274 540.623 92.9192 548.449 90.8393V128.019C544.193 129.289 539.898 130.675 535.55 131.852C502.983 140.665 470.401 149.424 437.835 158.256C435.357 158.93 432.938 159.898 430.583 160.935C421.876 164.77 420.76 168.097 425.567 177.51C402.684 184.225 379.96 190.893 356.346 197.822C356.346 191.717 356.162 186.422 356.476 181.153ZM579.526 117.608C579.61 116.739 579.697 115.873 579.783 115.006C590.26 112.519 600.695 109.837 611.223 107.589C647.476 99.8388 684.139 94.0504 721.201 95.2457C749.919 96.1724 778.543 100.404 807.179 103.455C817.657 104.572 825.307 110.493 830.361 118.725C813.522 115.865 796.414 112.353 779.143 110.158C747.267 106.113 715.152 105.726 683.257 108.881C653.034 111.869 623.054 117.208 592.9 120.949C592.526 120.995 592.149 121.015 591.769 121.015C587.827 121.015 583.601 118.695 579.526 117.608ZM593.16 151.885C582.968 146.123 572.755 140.388 562.698 134.395C553.961 129.188 551.444 120.885 552.319 111.3C552.725 106.865 553.645 102.476 554.536 96.742C556.605 99.2753 557.973 100.471 558.744 101.975C565.803 115.726 578.054 123.314 591.394 129.499C601.479 134.175 611.763 138.423 621.939 142.906C623.824 143.738 625.616 144.785 627.194 147.063C617.17 149.047 607.157 151.093 597.106 152.936C596.932 152.968 596.75 152.983 596.563 152.983C595.448 152.983 594.156 152.449 593.16 151.885ZM613.304 133.338C608.423 130.781 603.147 128.98 598.048 126.838C598.034 126.447 598.021 126.058 598.01 125.666C608.271 123.867 618.492 121.789 628.801 120.317C664.469 115.225 700.309 111.941 736.364 112.898C769.197 113.767 801.868 116.569 833.551 126.096C851.804 131.583 868.862 139.434 882.855 152.86C884 153.959 885.082 155.124 886.145 156.306C886.377 156.572 886.402 157.036 886.489 157.305C871.552 154.657 856.652 151.384 841.583 149.454C773.901 140.8 706.095 133.32 637.696 138.076C636.301 138.172 634.938 138.222 633.598 138.222C626.347 138.222 619.833 136.758 613.304 133.338ZM429.008 172.526C430.506 170.334 431.568 166.84 433.575 166.164C445.222 162.244 457.039 158.789 468.9 155.554C494.574 148.548 520.364 141.973 545.975 134.752C552.277 132.975 556.266 134.301 559.948 141.098C546.147 144.675 532.925 148.024 519.745 151.528C491.917 158.93 464.128 166.477 436.259 173.726C435.887 173.821 435.502 173.864 435.105 173.864C433.189 173.864 431.019 172.895 429.008 172.526ZM660.864 151.466C653.936 147.415 645.365 146.185 637.994 143.836C640.282 143.568 643.374 143.018 646.487 142.869C681.315 141.217 716.109 141.949 750.795 145.415C782.834 148.616 814.873 151.962 846.819 155.993C861.162 157.804 875.299 161.362 889.485 164.357C891.412 164.762 893.583 166.132 894.715 167.718C897.811 172.052 900.413 176.742 903.622 181.961C888.722 179.035 874.979 176.094 861.143 173.657C807.329 164.176 753.059 159.886 698.445 160.56C697.994 160.566 697.55 160.568 697.106 160.568C684.139 160.568 672.337 158.173 660.864 151.466ZM187.335 246.808C240.26 233.438 293.366 220.733 346.061 206.509C417.163 187.312 488.026 167.215 558.792 146.815C570.573 143.419 577.427 150.153 586.02 155.327C449.089 186.145 315.682 230.772 177.755 258.639C177.929 249.854 178.76 248.974 187.335 246.808ZM590.038 173.372C590.298 160.305 590.252 160.06 603.077 157.425C614.531 155.068 626.087 153.171 637.648 151.38C647.007 149.928 655.127 152.958 663.103 159.832C638.12 164.89 614.294 169.714 590.469 174.538C590.296 174.093 590.03 173.731 590.038 173.372ZM544.958 184.446C542.604 175.882 544.251 172.378 551.93 170.315C562.54 167.465 573.207 164.826 584.919 161.822C584.6 166.543 584.592 170.069 584.011 173.499C583.807 174.724 582.395 176.423 581.237 176.71C569.728 179.564 558.159 182.179 546.598 184.811C546.528 184.827 546.458 184.833 546.384 184.833C545.925 184.833 545.407 184.554 544.958 184.446ZM190.169 278.452C193.938 273.47 198.028 269.615 204.871 268.075C341.074 237.417 477.205 206.445 613.4 175.749C632.374 171.473 651.572 168.161 670.738 164.818C673.073 164.411 676.817 165.871 678.241 167.739C681.413 171.898 683.526 176.863 686.241 181.8C520.502 214.824 355.629 247.676 190.754 280.528C190.559 279.838 190.363 279.144 190.169 278.452ZM818.22 206.046C791.585 197.399 764.225 192.816 736.595 189.346C723.578 187.712 710.53 186.231 697.556 184.313C695.417 183.999 692.902 182.208 691.714 180.357C689.043 176.204 687.104 171.583 684.033 165.506C691.426 165.506 697.344 165.466 703.249 165.512C761.047 165.961 818.439 171.038 875.361 181.044C889.285 183.494 903.072 186.807 914.206 196.521C915.063 197.27 915.889 198.061 917.553 199.591C906.593 200.56 896.597 201.254 886.652 202.371C871.439 204.082 856.301 206.559 841.057 207.769C838.537 207.969 835.941 208.099 833.338 208.099C828.153 208.099 822.936 207.578 818.22 206.046ZM508.114 181.026C518.083 178.491 528.093 176.128 538.843 173.505C538.993 175.691 539.047 177.053 539.187 178.407C539.84 184.819 537.367 187.994 530.593 189.053C520.466 190.632 510.52 193.357 500.501 195.594C498.239 185.284 499.277 183.279 508.114 181.026ZM334.067 187.258C334.16 186.179 335.307 184.637 336.308 184.288C340.703 182.749 345.226 181.572 351.449 179.751C350.786 186.791 350.369 192.553 349.574 198.263C349.452 199.144 347.697 200.092 346.526 200.476C342.624 201.747 338.646 202.776 333.168 204.333C333.474 197.812 333.602 192.521 334.067 187.258ZM466.613 191.488C475.384 189.236 484.165 187.011 493.388 184.661C495.301 194.889 493.963 196.964 485.048 198.932C476.786 200.754 468.546 202.67 460.36 204.532C457.514 195.877 458.724 193.514 466.613 191.488ZM315.542 192.194C316.828 189.264 322.461 188.247 328.043 185.405C327.478 193.082 328.205 199.264 326.174 204.341C325.092 207.05 319.252 207.849 313.77 210.316C314.313 202.84 313.485 196.881 315.542 192.194ZM625.312 198.809C653.028 194.581 679.799 185.104 708.791 191.225C739.629 197.738 770.949 201.902 802.044 207.189C805.303 207.744 808.455 208.96 811.614 211.084C797.721 212.889 783.81 214.584 769.929 216.523C737.69 221.033 705.444 225.517 673.238 230.291C670.594 230.684 668.018 230.878 665.512 230.878H665.478C646.2 230.878 631.296 219.462 625.312 198.809ZM297.189 198.006C298.633 195.176 303.931 194.325 308.114 192.284C310.639 208.272 308.496 211.806 295.725 213.753C293.277 208.28 294.888 202.516 297.189 198.006ZM1080.76 208.306V194.47C1095.29 195.616 1109.59 196.687 1123.87 198.003C1124.86 198.093 1126.35 199.956 1126.45 201.105C1126.8 204.599 1126.58 208.146 1126.58 211.802C1110.93 210.609 1095.98 209.468 1080.76 208.306ZM1013.36 198.967C1033.89 197.686 1054 196.432 1074.66 195.143V208.35C1054.29 209.156 1034.32 209.949 1013.92 210.757C1013.73 206.701 1013.56 203.195 1013.36 198.967ZM435.257 199.527C440.801 198.115 446.356 196.753 452.805 195.146V205.49C445.04 207.377 437.425 209.224 429.845 211.064C427.065 203.093 427.885 201.406 435.257 199.527ZM1132.65 212.863V199.016C1140.72 201.406 1148.68 202.957 1155.75 206.354C1157.85 207.362 1157.45 213.563 1158.38 218.343C1148.69 216.279 1140.8 214.6 1132.65 212.863ZM948.435 203.149C955.828 202.528 962.703 201.829 969.59 201.4C979.11 200.805 988.643 200.424 998.164 199.928C1008.95 199.364 1008.95 199.354 1007.55 210.893C988.468 212.055 969.315 213.222 949.554 214.425C949.185 210.665 948.835 207.201 948.435 203.149ZM288.995 200.085C290.6 213.962 288.386 217.462 278.052 217.797C276.213 205.328 278.606 201.314 288.995 200.085ZM632.862 251.541C629.045 250.464 625.297 249.134 621.534 247.867C602.464 241.44 591.46 227.956 586.947 207.015C596.936 204.983 606.594 202.885 616.327 201.204C617.67 200.971 620.272 202.453 620.775 203.739C629.832 226.907 648.335 236.296 671.457 239.714C695.336 243.248 719.087 241.246 742.85 238.978C790.346 234.444 837.773 229.039 885.332 225.286C938.257 221.115 991.277 218.162 1044.28 215.093C1086.2 212.668 1127.78 214.554 1168.19 227.589C1169.67 228.066 1171.13 228.59 1173.05 229.244C1160.74 237.973 1148.81 246.509 1136.75 254.857C1135.47 255.741 1133.32 256.052 1131.76 255.725C1093.2 247.648 1054.25 248.934 1015.26 250.518C975.113 252.149 934.942 253.198 894.802 254.969C849.902 256.949 805.034 259.62 760.134 261.682C748.299 262.225 736.483 262.595 724.685 262.595C693.791 262.595 663.077 260.068 632.862 251.541ZM369.633 222.835C370.693 220.894 371.358 217.679 372.874 217.205C389.058 212.161 405.378 207.548 421.775 202.785C423.444 212.223 423.096 212.779 415.424 214.472C400.743 217.707 386.059 220.938 371.38 224.173C370.797 223.728 370.214 223.283 369.633 222.835ZM889.01 215.376C888.409 213.172 888.847 210.681 888.847 207.437C906.85 206.049 924.333 204.702 942.423 203.306V214.652C925.741 216.012 909.183 217.436 892.607 218.561C892.582 218.563 892.557 218.563 892.532 218.563C891.349 218.563 889.373 216.69 889.01 215.376ZM272.185 205.033C273.647 217.119 271.29 221.01 261.024 222.763C258.413 210.898 260.756 207.261 272.185 205.033ZM829.498 214.506C846.237 212.536 862.744 210.522 879.277 208.807C880.396 208.693 882.467 210.621 882.83 211.944C883.424 214.139 882.992 216.616 882.992 219.433C872.947 220.525 863.351 221.592 853.755 222.6C848.432 223.159 843.109 223.626 837.78 224.125C835.69 224.322 834.064 224.47 832.807 224.47C828.422 224.47 828.597 222.635 829.498 214.506ZM219.952 284.461C223.764 282.345 227.351 279.084 231.423 278.276C345.771 255.555 460.18 233.139 574.523 210.394C580.31 209.243 582.595 210.873 583.961 215.867C584.64 218.357 585.533 220.786 586.851 224.849C462.808 236.049 342.445 264.631 220.826 285.813C220.535 285.362 220.243 284.91 219.952 284.461ZM254.18 210.458C257.383 219.632 254.447 225.485 245.468 227.032C242.934 216.279 245.017 212.44 254.18 210.458ZM771.725 221.365C788.695 219.249 805.534 217.149 822.93 214.981V225.213C810.951 226.373 798.985 227.535 787.012 228.7C784.047 228.989 781.089 229.258 778.13 229.603C776.823 229.755 775.747 229.855 774.877 229.855C771.268 229.855 771.049 228.153 771.725 221.365ZM238.597 215.34C240.598 227.18 237.736 230.923 226.556 230.993C228.897 224.347 231.132 218.076 238.597 215.34ZM332.355 230.596C333.877 229.266 335.191 227.264 336.956 226.718C344.855 224.275 352.867 222.183 360.883 220.142C361.926 219.877 363.23 220.641 364.412 220.93C364.023 222.34 364.041 224.161 363.142 225.06C361.96 226.239 360.131 226.991 358.453 227.401C350.295 229.39 342.095 231.203 333.909 233.079C333.392 232.253 332.874 231.424 332.355 230.596ZM682.988 235.09C682.925 234.794 682.863 234.493 682.807 234.196C708.722 230.445 734.631 226.678 760.546 222.968C763.117 222.599 766.345 222.163 765.82 226.237C765.588 227.97 763.737 230.798 762.461 230.893C737.715 232.687 712.95 234.172 688.186 235.648C688.017 235.658 687.848 235.662 687.679 235.662C686.128 235.662 684.552 235.271 682.988 235.09ZM313.415 236.82C314.887 231.49 318.709 229.727 326.585 230.387C326.438 234.783 323.061 236.875 315.654 236.875C314.946 236.875 314.198 236.857 313.415 236.82ZM526.124 237.977C536.682 236.548 547.251 235.034 557.847 233.706C566.914 232.569 575.995 231.48 585.102 230.754C587.152 230.589 590.204 231.346 591.306 232.806C599.117 243.159 609.08 250.244 621.496 254.863C589.848 258.748 558.203 262.633 526.124 266.57V237.977ZM283.526 243.677C285.044 238.679 298.509 234.001 307.646 235.301C306.265 240.091 296.781 243.823 286.88 243.823C285.765 243.823 284.641 243.775 283.526 243.677ZM512.034 264.174C511.633 257.227 511.519 250.248 511.726 243.29C511.849 239.114 512.773 238.853 519.989 239.934C519.989 247.861 520.224 255.962 519.773 264.027C519.691 265.471 516.785 266.759 515.184 268.119C514.085 266.807 512.114 265.545 512.034 264.174ZM421.397 256.61C421.66 255.202 424.277 253.517 426.026 253.212C448.537 249.303 471.084 245.597 493.631 241.908C497.318 241.302 501.06 241.031 506.007 240.468V269.113C477.05 273.267 447.83 277.459 417.768 281.771C418.974 272.941 419.893 264.719 421.397 256.61ZM277.737 242.02C276.914 243.773 276.547 245.991 275.654 246.23C264.497 249.223 253.265 251.924 240.763 255.021C244.036 249.034 264.215 242.562 277.737 242.02ZM235.521 252.749C229.863 259.492 221.795 258.79 214.086 259.291C219.983 253.468 227.93 253.708 235.521 252.749ZM340.399 291.537C341.166 284.676 341.889 277.513 342.866 270.387C342.972 269.597 344.443 268.574 345.424 268.381C368.381 263.899 391.357 259.516 415.937 254.808C414.273 264.45 412.861 272.994 411.226 281.496C411.08 282.259 409.572 283.169 408.598 283.306C386.756 286.36 364.899 289.319 343.043 292.273C343.013 292.277 342.982 292.279 342.95 292.279C342.608 292.279 342.129 292.03 340.399 291.537ZM728.526 267.703C774.633 266.171 820.678 262.836 866.785 260.998C917.271 258.986 967.788 257.765 1018.3 256.313C1038.37 255.735 1058.48 254.741 1078.54 255.272C1094.94 255.709 1111.3 258.13 1127.68 259.672C1127.82 260.288 1127.97 260.906 1128.12 261.524C1124.24 264.562 1120.42 267.671 1116.48 270.628C1078.4 299.201 1041.63 329.351 1007.78 362.911C988.662 381.866 970.885 401.98 957.017 425.279C956.122 426.787 953.752 428.147 951.975 428.267C946.433 428.646 940.847 428.391 935.28 428.391C672.062 428.405 408.846 428.411 145.632 428.53C141.758 428.532 139.579 427.469 137.598 424.099C129.039 409.534 123.285 394.074 121.096 376.756C126.361 376.084 131.273 375.689 136.067 374.71C137.552 374.407 138.713 372.52 140.021 371.359C138.517 370.362 137.017 368.529 135.509 368.525C130.972 368.507 126.434 369.199 120.905 369.704C121.398 363.743 121.702 357.866 122.542 352.066C122.684 351.069 125.008 349.972 126.478 349.671C129.772 348.993 133.218 349.023 136.496 348.291C138.367 347.874 140.031 346.526 141.788 345.6C141.656 344.947 141.521 344.295 141.389 343.644H124.366C125.564 332.045 127.427 329.496 138.301 327.841C165.221 323.751 192.216 320.165 219.153 316.204C258.481 310.419 297.76 304.312 337.106 298.663C384.128 291.912 431.18 285.352 478.256 278.983C524.943 272.667 571.683 266.752 618.381 260.529C631.1 258.834 643.553 258.636 656.192 261.877C674.652 266.612 693.54 267.994 712.419 267.994C717.792 267.994 723.165 267.882 728.526 267.703ZM325.16 273.891C325.867 271.643 331.952 271.095 337.086 269.222C336.245 277.748 335.788 284.439 334.755 291.038C334.558 292.274 332.184 293.541 330.576 294.083C328.373 294.827 325.942 294.893 322.274 295.454C323.129 287.78 323.077 280.498 325.16 273.891ZM240.65 306.412C241.883 300.662 242.858 295.224 244.326 289.923C244.693 288.603 246.517 287.021 247.901 286.752C271.047 282.293 294.231 278.021 317.411 273.725C317.565 273.697 317.762 273.887 319.324 274.667C318.547 281.011 317.802 287.943 316.714 294.819C316.588 295.617 314.619 296.507 313.407 296.692C290.476 300.14 267.534 303.502 244.584 306.823C244.404 306.849 244.222 306.859 244.036 306.859C243.096 306.859 242.055 306.57 240.65 306.412ZM146.897 319.802C150.755 310.597 154.543 301.366 158.564 292.237C159.015 291.212 160.72 290.364 161.972 290.135C179.679 286.88 197.411 283.749 215.137 280.586C215.364 281.045 215.586 281.501 215.812 281.96C214.937 283.085 214.164 284.309 213.172 285.317C204.259 294.376 195.411 303.502 186.287 312.342C184.328 314.24 181.47 315.763 178.802 316.268C168.747 318.171 158.599 319.583 148.486 321.18C147.957 320.72 147.426 320.261 146.897 319.802ZM227.693 308.71C228.341 293.774 230.588 289.333 237.562 288.81C239.372 299.161 234.94 308.718 228.032 308.718C227.92 308.718 227.808 308.716 227.693 308.71ZM225.288 291.351C223.764 297.563 222.456 303.441 220.774 309.21C220.503 310.128 218.608 310.944 217.36 311.135C209.371 312.354 201.355 313.387 192.933 314.537C200.342 301.215 213.004 291.886 225.288 291.351ZM157.309 450.909C153.027 445.751 148.672 440.655 143.112 434.066H950.768V455.621C948.435 455.621 946.32 455.623 944.193 455.621C685.584 455.539 426.964 455.449 168.349 455.454C163.816 455.454 160.211 454.401 157.309 450.909Z" fill="url(#paint0_linear_224_714)"/>
<defs>
<linearGradient id="paint0_linear_224_714" x1="-0.001551" y1="249.485" x2="1184" y2="249.485" gradientUnits="userSpaceOnUse">
<stop stop-color="#FFFDC0" stop-opacity="0"/>
<stop offset="0.355769" stop-color="#FFFDC0" stop-opacity="0"/>
<stop offset="1" stop-color="#FFFDC0"/>
</linearGradient>
</defs>
</svg>
